<svg width="24" height="24" viewBox="0 0 24 24" fill="none" xmlns="http://www.w3.org/2000/svg">
<path d="M6.3 23.3675C6.0375 23.3675 5.8125 23.33 5.55 23.2175C4.9125 22.9175 4.5 22.28 4.5 21.5675V3.07999C4.5 1.76749 5.5875 0.679993 6.9 0.679993H17.1375C18.45 0.679993 19.5375 1.76749 19.5375 3.07999V21.4925C19.5375 22.205 19.125 22.8425 18.4875 23.1425C17.85 23.4425 17.1 23.33 16.5375 22.8425L12.4125 19.2425C12.15 19.055 11.85 19.0925 11.5875 19.2425L7.4625 22.88C7.125 23.18 6.7125 23.3675 6.3 23.3675ZM6 21.18C5.5875 21.18 6.15 2.70499 6.15 3.07999L6.05804 19.68C6.05804 19.7175 7.775 17.4675 6 21.18C7.5 20.68 6 20.18 6 20.18L10.5375 17.9675C11.4 17.2925 12.1375 17.2925 13 17.9675L14.5 16.68L17.7375 21.1187C17.7375 21.1187 17.5627 21.0194 17.6377 20.9819C17.7127 20.9444 16.5375 18.005 16.5375 17.9675L17.8125 3.07999C17.8125 2.66749 18.0127 20.9819 17.6377 20.9819L11.5875 17.4975L9.5 18.8846L8.5 20.5925L7.5 21.18H6Z" fill="#DA9A23"/>
</svg>
