<svg xmlns="http://www.w3.org/2000/svg" height="20" viewBox="0 96 960 960" width="20" fill="#7a7388"><path d="M480 1016 359 895H204q-34.65 0-59.325-24.675Q120 845.65 120 811V260q0-34.65 24.675-59.325Q169.35 176 204 176h552q34.65 0 59.325 24.675Q840 225.35 840 260v551q0 34.65-24.675 59.325Q790.65 895 756 895H600l-120 121ZM204 811h188l87.5 88 87.5-88h189V260H204v551Zm0-551v551-551Zm274.113 515Q500 775 515 759.887q15-15.112 15-37Q530 701 514.887 686q-15.112-15-37-15Q456 671 441 686.113q-15 15.112-15 37Q426 745 441.113 760q15.112 15 37 15ZM517 620q0-37 7.5-53t30.5-39q35-34 51-58t16-57q0-54-37.5-86t-97.448-32q-54.052 0-92.97 27.265Q355.163 349.529 340 398l70 28q12-30 31.8-44.5T488 367q24.429 0 40.714 12.5Q545 392 545 415q0 18-12.5 36.5T493 495q-30 27-41.5 54.5T440 620h77Z"/></svg>